<?xml version="1.0" standalone="no"?>
<!DOCTYPE svg PUBLIC "-//W3C//DTD SVG 20010904//EN"
 "http://www.w3.org/TR/2001/REC-SVG-20010904/DTD/svg10.dtd">
<svg version="1.0" xmlns="http://www.w3.org/2000/svg"
 width="493.000000pt" height="493.000000pt" viewBox="0 0 493.000000 493.000000"
 preserveAspectRatio="xMidYMid meet">
<metadata>
Created by potrace 1.11, written by Peter Selinger 2001-2013
</metadata>
<g transform="translate(0.000000,493.000000) scale(0.100000,-0.100000)"
fill="#000000" stroke="none">
<path d="M2330 4850 c-58 -4 -127 -8 -153 -9 -29 -1 -46 -5 -42 -11 3 -5 15
-10 25 -10 23 0 17 -27 -8 -33 -14 -4 -14 -5 1 -6 16 -1 18 -8 14 -47 -2 -25
-11 -53 -20 -61 -15 -15 -17 -13 -29 30 -11 42 -15 47 -40 47 -15 0 -28 -3
-28 -7 0 -5 13 -53 29 -108 16 -55 28 -101 27 -103 -6 -5 -48 102 -50 125 0
13 -4 23 -7 23 -4 0 -12 20 -19 45 -12 42 -29 60 -31 33 -4 -65 -7 -79 -18
-92 -7 -9 -9 -21 -5 -28 5 -7 7 -24 5 -38 -38 -280 -39 -302 -20 -395 23 -110
23 -115 4 -115 -9 0 -27 -11 -40 -24 -13 -13 -26 -19 -27 -14 -6 18 -58 -22
-59 -46 0 -15 -4 -12 -14 14 -19 50 -19 54 20 74 19 11 33 21 30 24 -2 2 -20
-5 -39 -16 -27 -16 -38 -18 -50 -9 -18 13 -49 117 -36 117 5 0 -14 66 -41 146
-35 103 -47 150 -40 157 6 6 11 21 11 34 0 16 6 23 20 23 15 0 20 7 20 28 0
16 8 33 19 41 16 12 17 18 8 35 -7 12 -18 25 -25 29 -7 5 -10 12 -7 17 3 4 -5
6 -17 3 -41 -10 -6 15 57 41 69 29 59 35 -12 8 -26 -11 -70 -25 -98 -32 -27
-7 -84 -29 -125 -48 -41 -20 -79 -35 -84 -33 -5 1 -6 -5 -3 -12 4 -10 -11 -24
-44 -41 -27 -15 -49 -29 -49 -31 0 -5 56 21 117 53 29 15 44 18 49 11 8 -13
-13 -29 -39 -29 -15 0 -17 -5 -13 -27 3 -16 2 -35 -4 -43 -5 -8 -10 -11 -10
-6 0 4 -12 -5 -28 -22 -24 -26 -30 -28 -47 -16 -18 12 -26 10 -65 -16 -25 -17
-44 -35 -42 -41 1 -6 -2 -8 -8 -4 -5 3 -20 -1 -32 -9 -12 -9 -35 -16 -50 -16
-20 0 -26 -4 -22 -14 4 -9 -6 -20 -25 -31 -31 -15 -42 -35 -20 -35 7 0 26 9
44 20 l32 20 -3 -28 c-2 -17 7 -41 25 -67 59 -84 150 -255 145 -270 -12 -31
-33 -13 -68 60 -20 41 -45 84 -56 95 -12 12 -18 25 -15 30 4 6 2 10 -3 10 -6
0 -13 15 -16 34 -4 19 -13 37 -21 40 -15 6 -20 -5 -8 -18 4 -3 12 -22 18 -40
10 -28 10 -33 -1 -29 -8 3 -14 9 -14 15 0 5 -4 6 -10 3 -5 -3 -7 -19 -4 -34 4
-16 2 -36 -3 -46 -8 -13 -17 -4 -52 49 -50 79 -89 126 -102 126 -6 0 -7 -4 -4
-10 3 -5 -1 -10 -9 -10 -12 0 -14 7 -9 31 5 29 4 30 -14 20 -11 -5 -23 -23
-26 -39 -3 -16 -20 -42 -37 -58 -17 -16 -41 -46 -52 -66 -12 -21 -29 -38 -37
-38 -14 0 -14 -2 -1 -10 12 -7 11 -13 -10 -37 -13 -15 -31 -35 -40 -43 -31
-30 -72 -90 -61 -90 6 0 11 -4 11 -10 0 -5 -9 -10 -20 -10 -22 0 -45 -35 -42
-65 3 -33 -12 -47 -42 -39 -23 5 -27 11 -22 30 9 35 -14 30 -46 -9 -64 -77
-82 -101 -73 -95 6 4 17 3 25 -2 12 -8 13 -13 2 -27 -6 -10 -18 -29 -24 -43
-7 -14 -23 -39 -35 -56 -13 -17 -28 -45 -34 -62 -6 -19 -15 -29 -22 -25 -6 4
-8 0 -4 -10 3 -8 -1 -21 -9 -27 -8 -7 -14 -9 -14 -4 -1 20 -40 -43 -40 -64 0
-16 -4 -21 -12 -16 -7 4 -10 4 -6 -1 4 -4 1 -17 -7 -29 -20 -27 -19 -36 3 -36
13 0 18 8 17 27 0 14 6 28 14 31 10 3 12 0 7 -14 -14 -35 -17 -74 -6 -74 8 0
8 -6 0 -20 -6 -11 -8 -25 -5 -31 4 -5 1 -16 -5 -24 -15 -18 -6 -45 15 -45 8 0
23 -5 33 -10 19 -12 174 -61 178 -57 2 1 -5 41 -15 87 -28 126 -26 127 99 75
57 -24 106 -48 108 -54 2 -6 -4 -44 -13 -85 -9 -42 -15 -81 -13 -88 3 -7 11
19 18 57 16 89 26 116 42 113 13 -3 16 11 38 167 6 44 22 100 34 125 21 42 51
139 44 145 -2 1 -23 15 -48 30 -25 15 -47 30 -50 32 -6 5 83 83 96 83 5 0 25
-15 43 -34 28 -28 32 -39 26 -64 -6 -29 -4 -31 100 -87 l105 -58 -6 -81 c-3
-45 -7 -86 -9 -93 -3 -7 -53 11 -142 53 -76 35 -142 63 -148 61 -10 -4 -13
-17 -36 -162 -20 -123 -20 -125 7 -137 29 -13 29 -11 5 -106 -10 -43 -22 -89
-25 -103 -4 -18 -12 -26 -23 -25 -12 1 -17 -5 -15 -16 2 -10 -2 -18 -8 -18 -6
0 -9 -4 -6 -9 3 -4 0 -16 -7 -25 -7 -10 -11 -33 -9 -52 3 -28 8 -34 28 -34 13
0 24 -4 24 -8 0 -4 12 -9 27 -10 50 -4 36 -12 -21 -12 -36 0 -55 4 -51 10 3 6
0 13 -8 15 -9 4 -12 17 -10 38 4 24 2 28 -6 17 -8 -11 -9 0 -5 40 3 30 8 58
10 61 5 9 -19 59 -29 59 -5 0 -5 -4 -2 -10 4 -6 -5 -10 -20 -10 -21 0 -25 -4
-20 -19 3 -11 1 -22 -5 -26 -5 -3 -10 -11 -10 -16 0 -6 4 -8 9 -5 5 3 13 -25
19 -62 10 -71 -3 -132 -30 -132 -9 0 -9 -3 2 -10 12 -8 11 -11 -8 -16 -24 -7
-24 -4 -6 -144 10 -78 9 -93 -3 -97 -9 -3 -13 7 -14 31 -1 20 -2 39 -3 44 -1
4 -6 40 -10 80 -4 39 -12 75 -18 78 -5 3 -21 -5 -36 -17 -14 -13 -21 -16 -13
-7 7 9 9 23 5 29 -5 8 -3 9 6 4 9 -6 11 3 9 39 -4 50 2 53 61 29 25 -11 41 1
24 16 -5 4 -90 27 -189 51 -99 24 -185 45 -191 47 -6 2 -17 -11 -25 -29 -11
-25 -13 -78 -11 -223 l3 -191 -86 -73 c-51 -44 -85 -81 -85 -92 0 -18 2 -19
29 -5 33 17 45 12 31 -15 -7 -12 -6 -19 3 -22 6 -3 2 -6 -10 -6 -31 -1 -29
-16 5 -30 25 -10 27 -16 24 -51 -4 -40 -4 -40 31 -40 26 0 36 5 40 20 7 26 33
26 40 0 4 -16 11 -20 29 -16 43 10 387 28 398 21 5 -3 16 -3 23 2 6 4 20 9 30
10 21 4 22 -15 5 -150 -13 -107 -9 -104 -83 -72 -71 30 -390 144 -393 140 -7
-7 9 -76 16 -71 4 2 7 -30 7 -71 0 -45 4 -77 11 -81 6 -4 25 -47 41 -97 17
-49 35 -89 41 -88 8 2 9 -8 5 -27 -3 -18 -1 -30 5 -30 6 0 65 22 131 48 67 27
121 45 121 40 0 -4 -1 -8 -3 -8 -20 0 -273 -114 -283 -127 -9 -12 -13 -14 -14
-5 0 8 -5 10 -12 6 -8 -5 -9 -2 -5 10 4 10 -1 25 -13 38 -27 29 -27 4 0 -40
13 -21 18 -41 14 -57 -4 -17 -2 -25 7 -25 10 -1 9 -4 -3 -13 -15 -12 -13 -18
23 -65 21 -29 39 -56 39 -61 0 -5 7 -14 15 -21 8 -7 12 -17 8 -23 -3 -5 -1 -7
5 -4 5 4 8 16 5 27 -3 11 -10 17 -15 13 -6 -3 -9 0 -6 8 3 8 -1 19 -8 24 -10
7 -11 15 -4 25 9 13 11 13 21 0 8 -11 9 -6 4 20 -5 26 -4 31 4 20 10 -13 12
-13 21 0 8 12 10 13 10 1 0 -8 2 -12 5 -9 10 9 -7 38 -18 31 -5 -3 -7 -1 -4 5
4 5 -2 31 -13 56 -14 34 -16 46 -6 46 7 0 18 -12 25 -26 7 -16 17 -24 26 -20
9 3 12 0 8 -10 -3 -7 0 -14 6 -14 6 0 8 -7 5 -15 -5 -13 -3 -13 22 0 20 10 43
13 72 9 43 -6 167 5 144 13 -10 4 -10 8 -1 19 17 21 3 29 -25 15 -13 -8 -28
-11 -34 -7 -10 6 -6 82 8 131 5 17 11 56 15 88 4 37 11 57 20 57 7 0 16 7 19
16 15 38 37 -31 36 -113 0 -39 5 -39 138 -19 45 6 85 10 87 7 3 -2 5 -16 5
-30 1 -25 1 -25 15 -6 16 23 27 34 50 53 15 13 15 16 1 31 -9 10 -13 21 -9 24
12 13 -13 7 -31 -6 -10 -8 -28 -12 -40 -10 -20 4 -21 8 -15 61 4 31 8 68 8 82
1 19 8 10 25 -33 28 -67 32 -72 41 -58 3 6 1 11 -5 11 -6 0 -10 6 -8 13 3 15
-20 81 -44 129 -11 20 -20 52 -20 70 -1 18 -6 36 -11 40 -7 4 -10 44 -9 100 1
51 -3 100 -9 108 -6 10 -7 -2 -3 -39 6 -43 4 -52 -6 -46 -13 8 -12 1 7 -97 3
-16 1 -28 -4 -28 -13 0 -47 210 -35 222 6 6 8 47 5 96 -5 74 -3 85 8 74 15
-14 16 -20 18 -101 1 -43 4 -50 26 -55 14 -4 23 -11 20 -16 -3 -5 -1 -11 5
-15 5 -3 10 -29 10 -56 l0 -50 33 6 32 6 28 -93 c36 -124 36 -124 -18 -132
-25 -4 -45 -8 -45 -10 0 -1 7 -26 15 -54 16 -54 45 -72 45 -29 0 31 9 39 26
22 17 -16 18 -35 3 -35 -5 0 -7 -5 -3 -11 3 -6 17 -9 31 -6 17 3 21 1 14 -6
-16 -16 -14 -27 5 -27 8 0 12 -5 9 -10 -3 -6 -2 -10 4 -10 5 0 12 6 14 13 3 6
6 2 6 -10 1 -12 -6 -28 -14 -37 -20 -19 -19 -36 5 -66 l20 -25 1 25 c1 14 1
29 0 33 -1 5 3 6 9 2 5 -3 10 1 10 10 0 9 5 13 11 10 6 -4 8 -14 5 -22 -3 -8
-2 -12 3 -8 17 10 33 -60 20 -88 -10 -22 -8 -30 12 -56 34 -42 44 -44 79 -14
35 29 53 24 25 -8 -15 -15 -17 -24 -8 -37 5 -9 15 -17 21 -17 5 0 30 -19 55
-42 l45 -42 6 25 c9 34 21 23 35 -31 12 -47 19 -53 39 -33 9 9 15 9 23 1 8 -8
4 -20 -15 -46 -14 -18 -26 -39 -26 -44 0 -12 29 -27 48 -24 6 1 12 -5 12 -14
0 -9 3 -14 8 -12 4 3 8 -6 8 -19 1 -13 -2 -24 -7 -24 -5 0 -17 -8 -27 -18 -15
-15 -16 -20 -5 -31 7 -7 13 -7 13 -2 0 7 9 7 26 1 34 -13 39 -13 24 5 -9 11
-9 21 4 46 9 18 16 42 16 55 0 13 5 26 10 29 6 3 10 1 10 -4 0 -6 7 -11 15
-11 8 0 15 -6 15 -14 0 -10 7 -12 22 -8 17 4 20 2 15 -13 -5 -12 -3 -16 7 -12
18 7 48 -15 44 -31 -2 -7 14 -22 34 -34 36 -21 38 -21 51 -4 11 15 17 17 35 7
13 -7 37 -9 57 -5 23 4 35 2 35 -5 0 -6 -5 -11 -11 -11 -8 0 -8 -5 1 -15 7 -8
21 -15 31 -15 23 0 24 -25 4 -60 -20 -35 -19 -37 21 -35 20 1 70 -8 110 -21
86 -28 104 -29 104 -10 0 34 56 38 144 10 14 -5 16 -3 11 7 -7 12 -5 12 6 1 8
-7 14 -20 14 -30 0 -12 12 -19 40 -23 47 -8 53 -5 31 16 -9 9 -16 22 -16 29 0
19 45 14 46 -4 2 -30 4 -35 13 -22 6 10 18 11 52 3 61 -14 152 -14 167 1 10
10 12 6 10 -17 -1 -17 1 -36 6 -43 9 -14 36 -16 36 -2 0 5 7 7 16 3 16 -6 15
4 -3 55 -3 6 2 13 11 13 22 2 23 2 86 22 30 9 84 23 120 31 36 8 72 17 80 20
15 6 40 -33 69 -106 12 -32 12 -32 -76 -59 -37 -11 -75 -27 -83 -35 -12 -12
-12 -16 5 -29 18 -13 18 -14 3 -15 -22 0 -22 -4 -3 -55 13 -36 15 -38 21 -18
3 13 10 20 15 18 4 -3 4 -17 -1 -31 -14 -35 -12 -41 5 -18 14 19 14 18 15 -3
0 -13 3 -23 8 -23 4 0 20 -29 35 -64 16 -35 38 -72 50 -83 19 -17 19 -16 -2
15 -13 18 -21 35 -18 38 5 5 56 -80 112 -189 l40 -78 35 6 c45 9 44 8 31 46
-9 25 -8 34 1 41 22 14 109 40 115 35 2 -3 -13 -32 -35 -64 -30 -44 -38 -63
-30 -74 8 -11 9 -10 4 4 -4 14 7 23 50 45 l55 27 20 -25 20 -25 -16 34 c-13
26 -15 39 -6 57 12 28 20 29 47 10 13 -10 23 -11 31 -4 18 15 16 41 -2 34 -12
-4 -317 122 -333 138 -2 3 -1 14 3 26 l7 21 41 -24 c91 -54 248 -137 257 -137
14 0 12 27 -2 33 -10 4 -9 8 2 16 12 8 -5 19 -75 51 -129 58 -135 62 -135 77
0 7 4 13 9 13 18 0 205 -91 213 -103 4 -7 8 -8 8 -3 0 5 8 2 18 -6 25 -22 52
-30 52 -15 0 8 4 6 10 -3 5 -8 10 -10 10 -5 0 6 5 2 11 -8 11 -19 4 -37 -15
-37 -28 0 -48 -36 -41 -74 4 -20 11 -34 15 -31 5 3 13 -2 18 -11 14 -25 32 -7
32 32 0 19 5 34 11 34 5 0 7 5 4 10 -4 6 -4 34 0 62 7 47 9 50 21 33 14 -18
14 -18 14 2 0 12 5 25 10 28 6 3 10 17 10 31 0 13 4 24 9 24 13 0 -4 58 -23
79 -12 13 -13 24 -4 56 5 22 11 56 12 75 1 30 4 35 24 34 12 -1 22 4 23 10 0
6 4 2 9 -9 8 -19 9 -19 9 3 1 13 5 21 10 17 5 -3 12 3 15 12 3 10 3 -27 0 -82
-2 -55 -5 -129 -6 -163 -1 -68 -14 -86 -44 -61 -9 8 -2 -10 16 -39 l32 -52 45
40 c25 22 50 40 54 40 5 0 9 7 9 16 0 9 43 59 96 111 66 65 93 98 86 105 -6 6
-8 17 -5 24 3 7 -5 25 -16 40 -12 15 -21 30 -21 35 0 4 31 40 69 81 37 40 80
86 94 101 39 43 40 17 1 -28 -19 -22 -51 -59 -70 -82 l-36 -42 39 -61 c21 -33
43 -59 49 -57 6 1 48 46 93 100 77 92 81 100 66 117 -13 15 -14 22 -3 46 7 16
18 35 25 42 7 7 13 21 13 31 0 9 6 23 13 30 10 11 10 14 0 18 -19 7 -17 15 30
85 56 86 74 118 123 211 22 43 46 82 53 86 6 4 30 70 52 146 41 139 41 145 6
158 -5 1 -5 18 1 37 7 28 13 34 30 33 20 -3 27 12 24 48 0 3 3 22 8 42 5 24 4
35 -2 31 -6 -4 -8 2 -3 15 10 33 -15 35 -107 8 -127 -39 -159 -46 -153 -37 3
5 -3 11 -12 14 -10 2 0 2 22 0 26 -4 35 -2 27 4 -11 7 -10 10 3 16 26 10 42 7
25 -5 -13 -9 -13 -10 0 -6 8 2 18 17 21 33 5 22 7 24 8 7 1 -23 19 -43 18 -20
0 6 1 23 2 37 2 23 4 22 16 -10 l13 -35 1 43 c1 23 4 42 9 42 18 -1 32 -18 26
-33 -3 -9 -2 -17 3 -17 5 0 15 50 22 111 7 62 18 125 23 141 8 21 7 33 -1 41
-14 14 -15 87 -1 87 6 0 10 5 10 10 0 6 -6 10 -13 10 -10 0 -15 19 -16 72 -1
40 -11 122 -22 183 -10 60 -21 128 -24 150 -5 39 -5 39 6 10 6 -16 11 -38 11
-48 -1 -9 4 -15 10 -11 6 4 8 28 4 63 -5 40 -4 52 3 41 6 -8 11 -28 11 -45 0
-58 12 -105 26 -105 10 0 13 8 9 23 -2 12 -11 55 -19 96 -8 41 -19 77 -24 80
-14 10 -22 39 -11 43 6 2 3 23 -7 53 -9 28 -18 55 -20 62 -2 7 -19 15 -38 19
-44 8 -47 24 -6 24 40 0 30 28 -12 32 -29 3 -34 9 -74 108 -25 60 -39 107 -34
110 6 4 4 14 -5 26 -15 19 -15 19 -9 -1 4 -15 1 -13 -10 5 -16 27 -22 55 -6
30 15 -24 12 -4 -7 40 -10 22 -21 40 -26 40 -4 0 -3 -9 3 -21 7 -11 10 -23 7
-25 -2 -3 -24 29 -47 71 -24 41 -47 75 -52 75 -4 0 -9 -12 -9 -27 -1 -21 -3
-18 -8 12 -6 37 -8 32 -30 -70 -21 -99 -40 -159 -41 -129 0 6 11 67 25 134 22
108 23 125 11 139 -8 9 -19 27 -24 41 -10 25 -144 193 -175 218 -9 8 -13 21
-10 30 3 12 2 14 -4 4 -7 -9 -26 6 -74 58 -53 58 -193 170 -213 170 -3 0 -50
29 -106 65 -61 40 -98 70 -94 77 4 7 3 8 -4 4 -6 -3 -45 12 -87 35 -42 22 -82
38 -90 35 -8 -3 -15 -1 -15 4 0 6 -11 10 -24 10 -13 0 -26 5 -28 12 -2 6 -20
17 -39 23 -19 7 -33 16 -31 21 4 9 -24 23 -48 23 -10 0 -9 -3 4 -8 12 -4 -1
-7 -34 -7 -39 0 -46 2 -29 8 30 11 18 21 -66 51 -93 32 -128 40 -120 28 3 -6
0 -8 -9 -5 -11 4 -17 -8 -26 -53 -6 -32 -16 -74 -21 -93 -5 -19 -9 -50 -9 -67
0 -29 -3 -33 -27 -34 -24 -2 -25 -2 -5 -6 18 -4 21 -9 16 -31 -4 -15 -8 -28
-8 -29 -1 -1 -43 -13 -94 -25 -77 -19 -92 -26 -93 -43 l0 -20 -9 20 c-5 11 -9
15 -9 9 -1 -7 -29 -17 -63 -23 -35 -6 -78 -15 -95 -20 l-33 -10 0 39 0 38 74
22 74 22 6 67 c3 36 8 113 11 171 3 58 8 120 11 138 4 25 1 34 -13 39 -10 4
-21 11 -25 17 -9 14 -159 17 -176 3 -9 -7 -16 -7 -24 1 -7 7 -19 11 -27 10 -9
-1 -63 -5 -121 -8z m292 -40 c3 -17 2 -33 -2 -35 -15 -9 -80 8 -80 21 0 7 6
11 14 8 11 -4 13 0 9 15 -5 18 -1 21 25 21 26 0 30 -4 34 -30z m-162 -9 c0 -6
-4 -13 -10 -16 -5 -3 -10 1 -10 9 0 9 5 16 10 16 6 0 10 -4 10 -9z m36 -91
c30 26 34 -1 34 -214 l0 -214 -32 -12 c-18 -6 -42 -16 -53 -21 l-20 -9 20 4
c85 18 85 18 85 -3 0 -15 -10 -23 -42 -32 -24 -6 -69 -19 -100 -29 -31 -10
-60 -15 -63 -12 -3 3 -5 16 -5 29 0 12 -3 23 -7 23 -5 0 -8 15 -9 33 0 17 -13
105 -28 194 l-29 163 29 22 c71 56 90 65 138 63 35 -1 50 3 54 14 4 11 7 11
10 3 3 -10 7 -10 18 -2z m-887 -65 c0 -5 -4 -3 -9 5 -5 8 -9 22 -9 30 0 16 17
-16 18 -35z m56 -215 c-3 -4 14 -68 36 -141 42 -137 58 -255 42 -298 -8 -21
-11 -16 -26 43 -11 43 -13 74 -8 89 10 27 -51 289 -68 295 -6 2 -8 14 -5 27 3
13 -1 51 -10 85 -26 101 -17 102 14 1 16 -52 27 -98 25 -101z m510 169 c11
-16 1 -19 -13 -3 -7 8 -8 14 -3 14 5 0 13 -5 16 -11z m-77 -151 c54 -166 56
-175 44 -163 -5 6 -26 64 -47 130 -48 159 -47 155 -42 155 3 0 23 -55 45 -122z
m1272 118 c0 -2 -9 -6 -20 -9 -11 -3 -18 -1 -14 4 5 9 34 13 34 5z m-1951
-248 c-9 -16 -14 -19 -17 -9 -2 7 2 17 9 22 20 13 21 11 8 -13z m166 -163 c53
-82 103 -159 110 -170 11 -18 8 -23 -47 -57 -64 -41 -84 -47 -74 -22 3 8 2 13
-3 10 -4 -3 -13 6 -19 19 -9 20 -8 26 6 35 15 9 15 10 -3 8 -17 -3 -29 19 -80
145 -54 136 -58 149 -42 158 9 6 23 16 30 24 6 7 15 10 18 7 3 -4 50 -74 104
-157z m-704 -82 c-10 -17 -10 -16 -11 3 0 23 13 41 18 25 2 -6 -1 -18 -7 -28z
m2624 -150 c43 -40 45 -42 10 -17 -45 32 -79 64 -67 64 4 -1 30 -21 57 -47z
m-2682 -41 c-3 -12 -11 -22 -17 -22 -8 0 -11 -13 -8 -36 4 -30 1 -35 -12 -32
-10 1 -17 5 -16 8 1 3 -3 17 -9 32 -8 21 -7 27 6 32 9 4 13 13 9 24 -5 13 -3
13 9 -3 14 -17 17 -18 25 -5 5 8 10 19 10 24 0 5 2 7 5 5 2 -3 2 -15 -2 -27z
m147 0 c0 -15 -2 -15 -10 -2 -8 13 -10 12 -10 -2 0 -10 5 -18 10 -18 6 0 10
-4 10 -10 0 -16 -17 -11 -24 6 -8 21 3 56 15 49 5 -4 9 -14 9 -23z m1270 -24
c-13 -5 -33 -7 -45 -5 -15 2 -12 6 15 14 40 12 65 4 30 -9z m330 -7 c0 -27 3
-29 55 -36 42 -5 55 -11 56 -23 0 -11 2 -12 6 -4 2 6 16 12 29 12 21 0 24 5
24 35 0 19 5 35 10 35 6 0 10 -6 10 -12 0 -17 103 -50 132 -43 17 4 32 -1 52
-19 29 -24 29 -25 12 -51 -22 -33 -13 -45 14 -20 18 16 26 17 52 7 29 -11 29
-10 14 7 -20 22 -2 48 21 30 7 -7 13 -8 13 -5 0 4 11 -5 25 -20 14 -15 25 -30
25 -34 0 -4 8 -7 17 -6 11 0 24 -12 35 -32 22 -44 21 -44 52 -32 37 14 92 -15
73 -38 -6 -8 -10 -25 -9 -38 3 -18 -3 -26 -20 -33 -22 -8 -21 -10 32 -59 38
-36 60 -50 75 -47 34 8 125 -91 103 -113 -8 -8 -3 -13 16 -18 31 -7 35 -24 5
-24 -18 0 -19 -3 -9 -14 6 -8 26 -20 44 -26 19 -6 39 -22 47 -37 8 -15 22 -35
32 -45 24 -25 21 -38 -9 -38 -29 0 -29 1 0 -75 14 -40 30 -47 75 -34 8 2 16
-4 19 -13 2 -12 -5 -17 -25 -20 -21 -2 -27 -8 -25 -23 1 -11 3 -29 4 -40 1
-11 12 -40 25 -64 13 -24 23 -52 23 -62 0 -29 11 -49 29 -49 11 -1 9 -5 -8
-14 l-24 -13 36 -18 c21 -9 37 -21 37 -25 0 -26 -14 -69 -21 -65 -4 3 -10 1
-14 -5 -3 -5 -11 -10 -16 -10 -6 0 -8 3 -6 8 3 4 -11 7 -31 7 l-37 0 -6 -90
c-4 -50 -5 -93 -2 -97 2 -5 13 -8 23 -8 10 0 22 -5 26 -11 20 -34 1 -237 -22
-232 -5 1 -21 4 -34 8 -24 5 -26 1 -50 -73 l-26 -78 38 -35 c30 -27 35 -36 25
-44 -8 -5 -12 -15 -10 -22 3 -8 -6 -10 -31 -6 -34 5 -35 4 -46 -37 -6 -23 -9
-47 -7 -53 5 -15 -11 -47 -24 -47 -5 0 -14 11 -19 25 -5 14 -15 25 -21 25 -15
0 -5 -93 10 -98 6 -2 11 -19 11 -38 0 -20 -4 -33 -9 -30 -10 7 -50 -64 -44
-79 1 -5 -8 -11 -22 -11 l-25 -2 30 38 c19 24 27 41 20 45 -6 4 -17 1 -25 -5
-11 -9 -18 -10 -28 -1 -11 8 -18 6 -32 -9 -18 -20 -18 -21 6 -46 20 -21 21
-27 9 -35 -20 -12 -81 -4 -91 13 -6 9 -9 3 -9 -19 0 -17 -5 -35 -10 -38 -6 -4
-8 -10 -5 -15 9 -15 -15 -22 -30 -10 -12 10 -24 6 -62 -18 -45 -30 -48 -30
-67 -14 -11 9 -6 -3 12 -27 50 -70 38 -69 -28 1 -62 65 -76 63 -43 -7 16 -34
16 -36 -3 -49 -10 -8 -38 -17 -60 -21 -23 -3 -50 -12 -60 -20 -11 -8 -27 -15
-38 -15 -11 0 -16 -5 -13 -13 3 -9 -8 -13 -44 -12 -27 0 -49 4 -49 8 0 5 -7 2
-15 -7 -9 -8 -32 -18 -51 -22 -24 -4 -34 -11 -30 -20 3 -8 1 -14 -4 -14 -6 0
-10 9 -10 19 0 29 -9 31 -99 24 l-81 -6 0 -42 0 -42 70 -7 c51 -5 70 -11 70
-22 0 -16 -79 -20 -108 -5 -9 5 -25 12 -35 15 -10 3 -15 10 -12 16 4 6 -5 10
-20 10 -14 0 -24 3 -22 8 2 4 -9 17 -24 30 -16 13 -29 19 -29 14 0 -5 -20 -6
-47 -1 -27 4 -54 8 -60 8 -7 1 -13 12 -13 26 0 19 -7 26 -27 31 -16 3 -44 10
-63 15 -46 12 -60 11 -60 -2 0 -5 14 -15 31 -21 l31 -11 -26 -25 c-20 -21 -28
-24 -38 -14 -7 7 -19 12 -28 12 -9 0 -27 11 -39 24 -20 21 -20 25 -7 39 13 13
10 17 -32 33 -26 11 -50 20 -54 22 -14 6 -20 -40 -7 -49 11 -7 11 -9 1 -9 -9
0 -11 -7 -7 -20 9 -27 1 -25 -53 12 -26 18 -50 32 -54 30 -11 -3 -10 46 1 53
5 3 12 1 16 -5 3 -5 10 -10 15 -10 4 0 -5 14 -20 31 -16 17 -27 36 -23 45 4
10 0 12 -11 8 -9 -4 -31 6 -55 25 l-40 32 -17 -27 c-18 -26 -18 -27 12 -54 17
-15 33 -37 36 -48 7 -25 -10 -30 -19 -6 -3 8 -11 13 -19 10 -15 -6 -76 62 -68
76 3 5 -2 15 -12 22 -12 9 -14 15 -6 20 7 4 12 2 12 -3 0 -21 28 -11 45 16 17
26 17 27 -4 44 -12 10 -27 19 -33 21 -17 6 0 28 22 28 10 0 21 4 24 9 6 9 -96
111 -111 111 -5 0 -16 12 -26 28 -9 15 -25 38 -36 51 l-19 24 -15 -29 c-9 -16
-16 -24 -17 -19 0 6 6 19 13 30 8 11 22 34 33 50 l19 30 -41 -32 c-50 -40 -57
-40 -72 -8 -15 31 -36 33 -29 3 6 -23 6 -23 -9 -3 -27 35 -56 97 -51 109 3 7
-4 13 -14 13 -21 2 -24 -9 -9 -38 18 -32 3 -21 -17 14 -21 36 -29 102 -13 112
5 3 10 15 10 26 0 16 7 19 40 19 37 0 40 2 40 28 -1 15 -6 54 -13 87 l-13 60
-61 5 c-34 3 -63 7 -66 10 -11 13 -34 69 -30 74 2 2 21 -2 40 -10 41 -17 49
-14 34 14 -17 32 -13 49 14 56 24 6 25 10 25 81 0 49 -4 75 -11 75 -8 0 -10
15 -7 45 5 39 3 45 -13 45 -22 0 -23 4 -5 130 13 96 31 158 43 147 3 -4 17 15
30 41 14 26 31 52 39 58 7 6 11 19 8 30 -4 15 2 23 19 31 23 11 24 16 22 72
-3 49 -1 59 11 54 26 -10 45 17 38 52 -5 28 -2 34 15 40 12 3 21 10 21 15 0 4
7 10 14 13 11 4 13 1 10 -11 -3 -9 19 10 49 43 51 56 63 83 32 71 -11 -4 -32
23 -23 29 2 1 21 12 43 25 22 13 42 25 44 26 2 2 -2 10 -8 18 -8 10 -9 16 -1
21 13 8 30 -3 30 -21 0 -20 10 -17 48 14 31 25 32 30 22 57 l-10 30 19 -25 19
-24 54 37 c29 20 63 44 76 53 18 13 25 14 37 4 12 -10 15 -10 15 2 0 17 70 41
93 32 9 -3 17 1 21 13 3 10 3 1 0 -19 -3 -21 -2 -38 1 -38 24 0 47 28 60 73
l15 52 48 2 c26 1 57 5 68 7 18 5 23 -1 31 -37 l10 -42 10 35 c6 22 15 34 24
31 8 -2 25 -6 38 -9 l23 -5 -18 29 c-14 21 -15 26 -4 19 8 -5 19 -10 23 -10 5
0 15 -11 23 -25 15 -25 15 -25 11 13 l-3 37 73 0 73 0 0 -29z m-1570 9 c0 -5
-2 -10 -4 -10 -3 0 -8 5 -11 10 -3 6 -1 10 4 10 6 0 11 -4 11 -10z m-275 -10
c3 -5 2 -10 -4 -10 -5 0 -13 5 -16 10 -3 6 -2 10 4 10 5 0 13 -4 16 -10z
m-133 -92 c3 -27 5 -34 20 -68 25 -58 40 -109 35 -123 -2 -6 -7 3 -11 21 -4
17 -12 32 -17 32 -5 0 -9 10 -9 23 0 12 -9 42 -20 66 -11 24 -20 47 -20 52 0
14 20 11 22 -3z m158 -12 c0 -3 -4 -8 -10 -11 -5 -3 -10 -1 -10 4 0 6 5 11 10
11 6 0 10 -2 10 -4z m3615 -91 c-3 -25 -13 -63 -21 -83 -8 -20 -12 -26 -9 -12
2 14 10 51 16 83 14 68 24 77 14 12z m-3611 -21 c3 -8 2 -12 -4 -9 -6 3 -10
10 -10 16 0 14 7 11 14 -7z m-164 -27 c0 -2 -15 -16 -32 -33 l-33 -29 29 33
c28 30 36 37 36 29z m3598 -87 c-23 -95 -43 -132 -32 -60 7 46 43 154 49 148
2 -2 -6 -42 -17 -88z m-858 30 c9 -6 10 -10 3 -10 -6 0 -19 -3 -27 -6 -12 -5
-15 -2 -10 10 7 18 13 20 34 6z m-2830 -23 c0 -2 -9 -12 -19 -21 -14 -13 -21
-14 -27 -5 -4 7 -3 10 3 6 6 -4 16 0 23 8 12 14 20 19 20 12z m-76 -53 c5 -12
2 -15 -10 -10 -8 3 -21 6 -27 6 -7 0 -6 4 3 10 21 14 27 12 34 -6z m1140 0 c6
-17 -37 -84 -54 -84 -4 0 -15 -3 -24 -6 -30 -11 -18 39 16 73 37 36 53 40 62
17z m2446 -69 c30 -7 46 -14 35 -14 -11 -1 -44 -4 -72 -7 -44 -6 -53 -4 -53 9
0 13 13 25 30 26 3 0 30 -6 60 -14z m-3523 -47 c-3 -7 -5 -2 -5 12 0 14 2 19
5 13 2 -7 2 -19 0 -25z m3593 13 c0 -12 -126 -25 -142 -14 -8 5 8 10 42 14 89
9 100 9 100 0z m-2630 -5 c0 -11 -19 -15 -25 -6 -3 5 1 10 9 10 9 0 16 -2 16
-4z m2400 -17 c0 -5 -16 -17 -35 -26 -29 -14 -37 -15 -48 -3 -9 10 -9 11 1 6
18 -10 73 16 67 32 -3 7 0 10 5 7 6 -3 10 -10 10 -16z m-40 7 c0 -2 -7 -9 -15
-16 -13 -11 -14 -10 -9 4 5 14 24 23 24 12z m-2370 -66 c0 -13 -11 -13 -30 0
-12 8 -11 10 8 10 12 0 22 -4 22 -10z m3148 -72 c6 -23 16 -34 33 -38 34 -8
40 -57 7 -62 -13 -2 -22 -9 -21 -15 2 -7 5 -38 8 -70 4 -41 2 -52 -4 -38 -5
11 -10 35 -10 53 -1 56 -15 72 -59 65 -20 -3 -44 -11 -52 -18 -8 -7 -34 -16
-58 -20 -37 -6 -45 -12 -69 -53 -14 -26 -32 -54 -39 -62 -7 -8 -14 -29 -17
-46 l-5 -31 42 4 c22 3 100 10 171 16 l130 12 -2 60 c-1 33 1 49 3 35 24 -130
37 -227 40 -292 3 -69 2 -76 -14 -73 -15 4 -219 66 -314 96 -21 7 -38 16 -38
21 0 5 5 6 12 2 7 -5 8 -3 4 5 -5 7 -14 10 -22 7 -18 -7 -18 -2 2 37 12 22 13
32 5 35 -6 2 -9 8 -5 13 5 8 -10 13 -29 10 -5 -1 -6 8 -2 19 4 12 1 28 -6 36
-8 9 -10 33 -6 69 5 49 4 53 -10 40 -8 -9 -19 -28 -23 -43 -7 -22 -8 -23 -9
-6 -1 12 -8 25 -17 28 -14 5 -15 4 -5 -8 8 -10 9 -16 1 -21 -5 -3 -10 -2 -10
3 0 5 -7 9 -15 9 -10 0 -15 -12 -16 -36 -2 -35 -2 -35 -12 12 -8 37 -15 47
-31 48 -18 2 -17 2 3 6 13 3 31 11 38 19 8 8 24 14 35 14 16 0 19 5 16 25 -3
14 -5 25 -4 25 0 0 46 3 101 6 136 7 141 9 167 53 20 36 24 38 52 30 46 -13
49 -12 43 21 -9 40 0 38 11 -2z m-640 -79 c18 -44 32 -88 31 -97 0 -19 2 -24
-48 95 -34 78 -35 83 -23 83 5 0 23 -36 40 -81z m304 27 c2 -19 0 -32 -5 -29
-4 2 -14 -1 -22 -7 -8 -7 -15 -10 -15 -7 0 2 -32 -1 -72 -9 -39 -8 -73 -12
-75 -10 -5 5 159 95 173 96 7 0 14 -15 16 -34z m-3311 -43 c-12 -20 -14 -14
-5 12 4 9 9 14 11 11 3 -2 0 -13 -6 -23z m3106 -125 c-3 -8 -6 -5 -6 6 -1 11
2 17 5 13 3 -3 4 -12 1 -19z m10 -40 c-3 -8 -6 -5 -6 6 -1 11 2 17 5 13 3 -3
4 -12 1 -19z m200 -30 c-3 -7 -5 -2 -5 12 0 14 2 19 5 13 2 -7 2 -19 0 -25z
m-3262 -41 c6 -5 -1 -5 -14 -2 -15 5 -21 3 -17 -3 4 -6 1 -14 -6 -19 -11 -7
-16 -34 -19 -103 0 -8 -5 -46 -11 -83 -11 -77 -30 -94 -87 -77 -22 6 -31 5
-31 -3 0 -8 -3 -8 -8 -2 -4 6 -13 10 -21 10 -8 0 -15 12 -16 30 -1 17 -5 40
-9 52 -6 17 -2 22 21 27 15 3 47 4 70 2 48 -5 57 7 52 72 -2 21 0 43 4 49 4 6
4 19 1 30 -6 15 -4 16 7 6 17 -17 30 -16 23 0 -5 14 37 40 46 28 3 -3 10 -9
15 -14z m3085 -62 c0 -14 3 -25 8 -25 4 0 7 -15 7 -32 1 -18 5 -55 9 -83 14
-85 -10 -38 -28 55 -19 99 -19 110 -6 110 6 0 10 -11 10 -25z m137 -32 c-3
-10 -5 -2 -5 17 0 19 2 27 5 18 2 -10 2 -26 0 -35z m-3544 -23 c-3 -12 -8 -19
-11 -16 -5 6 5 36 12 36 2 0 2 -9 -1 -20z m3338 -37 c0 -21 2 -48 3 -60 2 -17
-3 -23 -16 -23 -13 0 -18 8 -18 29 0 77 29 128 31 54z m216 5 c-3 -7 -5 -2 -5
12 0 14 2 19 5 13 2 -7 2 -19 0 -25z m-3854 -15 c-7 -2 -21 -2 -30 0 -10 3 -4
5 12 5 17 0 24 -2 18 -5z m167 -38 c-7 -9 -15 -13 -17 -11 -7 7 7 26 19 26 6
0 6 -6 -2 -15z m665 5 c-3 -5 -10 -10 -16 -10 -5 0 -9 5 -9 10 0 6 7 10 16 10
8 0 12 -4 9 -10z m-465 -50 c0 -5 -4 -10 -10 -10 -5 0 -10 5 -10 10 0 6 5 10
10 10 6 0 10 -4 10 -10z m3457 -122 c-2 -13 -4 -3 -4 22 0 25 2 35 4 23 2 -13
2 -33 0 -45z m-3391 10 c-3 -34 -2 -36 3 -13 10 41 18 18 26 -77 4 -52 2 -78
-5 -78 -5 0 -10 17 -10 39 0 23 -8 48 -19 62 -18 23 -19 52 -6 97 9 26 14 10
11 -30z m-236 22 c0 -5 -4 -10 -9 -10 -6 0 -13 5 -16 10 -3 6 1 10 9 10 9 0
16 -4 16 -10z m316 -5 c-3 -8 -2 -15 3 -15 4 0 8 -7 8 -15 0 -13 -3 -13 -19 2
-22 20 -23 43 -2 43 10 0 14 -6 10 -15z m3250 -62 c-3 -32 -8 -91 -12 -130 -3
-40 -9 -73 -14 -73 -4 0 -13 -34 -20 -75 -7 -41 -17 -75 -22 -75 -6 0 -7 12
-4 28 4 18 3 22 -3 12 -5 -8 -17 -50 -27 -93 -15 -66 -21 -78 -36 -74 -10 3
-16 2 -13 -3 2 -4 -9 -47 -25 -95 -17 -49 -28 -90 -26 -92 6 -7 -34 -96 -48
-108 -19 -15 -100 -156 -101 -175 -2 -18 -45 -78 -57 -79 -4 -1 -10 8 -13 19
-6 18 -16 24 -37 22 -13 -2 -16 27 -2 32 11 4 12 10 2 31 -10 22 -9 27 8 39
12 9 23 11 28 5 19 -18 32 -8 75 56 24 36 50 65 57 65 7 0 16 10 20 23 4 12
17 38 30 58 21 33 21 38 7 52 -15 15 -14 17 10 26 23 9 26 14 20 42 -4 19 -2
30 3 26 12 -7 14 6 12 123 0 25 7 73 17 108 15 54 21 62 41 62 27 0 29 -9 9
-65 -16 -44 -20 -105 -6 -89 5 5 17 34 26 64 10 30 23 58 28 62 11 7 33 118
47 243 5 44 9 81 9 83 1 1 6 2 12 2 7 0 9 -19 5 -57z m-3446 10 c0 -22 -2 -25
-10 -13 -13 20 -13 40 0 40 6 0 10 -12 10 -27z m-110 7 c0 -5 -4 -10 -9 -10
-5 0 -18 -3 -28 -6 -16 -5 -16 -4 1 10 23 18 36 20 36 6z m201 -40 c5 0 9 -6
9 -14 0 -8 6 -17 13 -19 7 -3 7 -6 1 -6 -17 -1 -77 42 -82 59 -5 13 -3 13 11
1 14 -11 18 -11 24 5 7 17 8 17 11 -3 2 -13 8 -23 13 -23z m3275 -66 c-8 -107
-25 -146 -20 -48 3 74 13 134 22 134 3 0 2 -39 -2 -86z m316 -2 c-5 -14 -7
-12 -12 8 -4 14 -4 34 -1 45 4 17 6 16 12 -8 4 -16 5 -36 1 -45z m-3758 -20
c3 -5 9 -28 15 -51 l9 -41 -171 2 c-152 3 -170 5 -173 20 -1 10 1 17 4 16 4
-1 14 2 22 5 21 9 240 55 267 56 12 1 24 -3 27 -7z m213 -84 c-3 -8 -6 -5 -6
6 -1 11 2 17 5 13 3 -3 4 -12 1 -19z m-607 -43 c0 -22 -5 -35 -13 -35 -22 0
-25 10 -14 41 15 39 27 37 27 -6z m4200 -30 c0 -19 -2 -35 -4 -35 -2 0 -6 16
-8 35 -2 19 0 35 4 35 4 0 8 -16 8 -35z m7 -97 c-3 -7 -5 -2 -5 12 0 14 2 19
5 13 2 -7 2 -19 0 -25z m10 -75 c-3 -10 -5 -2 -5 17 0 19 2 27 5 18 2 -10 2
-26 0 -35z m70 21 c-3 -3 -12 -4 -19 -1 -8 3 -5 6 6 6 11 1 17 -2 13 -5z m250
-10 c-3 -3 -12 -4 -19 -1 -8 3 -5 6 6 6 11 1 17 -2 13 -5z m-717 -78 c0 -3
-14 -44 -31 -93 -32 -93 -60 -155 -67 -148 -7 7 81 245 90 245 4 0 8 -2 8 -4z
m552 -101 c62 -25 118 -45 125 -45 7 0 13 -2 13 -5 0 -5 -56 -151 -70 -180 -5
-11 -16 -37 -24 -58 l-16 -39 -97 52 c-54 29 -99 53 -100 54 -1 1 -5 14 -9 30
-5 21 -4 27 5 22 7 -5 11 6 11 34 0 27 5 43 15 46 11 5 15 22 15 63 0 51 5 71
17 71 2 0 54 -20 115 -45z m-278 -104 c8 -63 19 -117 24 -120 11 -6 33 -143
31 -189 -1 -27 -1 -27 -9 3 -4 17 -8 47 -9 68 0 22 -8 51 -16 65 -13 25 -47
251 -44 297 2 30 7 3 23 -124z m-430 44 c-4 -8 -8 -15 -10 -15 -2 0 -4 7 -4
15 0 8 4 15 10 15 5 0 7 -7 4 -15z m-14 -37 c0 -5 -7 -8 -15 -8 -8 0 -15 -4
-15 -10 0 -5 5 -10 12 -10 6 0 9 -3 6 -6 -4 -3 -17 0 -29 7 l-23 12 23 8 c17
7 21 14 16 31 -7 23 -7 23 9 3 8 -11 16 -23 16 -27z m-3080 -3 c-13 -16 -50
-21 -50 -7 0 8 52 31 59 25 2 -1 -2 -9 -9 -18z m-200 5 c0 -5 -12 -10 -27 -9
l-28 1 25 8 c14 4 26 8 28 9 1 1 2 -3 2 -9z m3827 -42 c-3 -8 -6 -5 -6 6 -1
11 2 17 5 13 3 -3 4 -12 1 -19z m-627 -11 c0 -2 -10 -12 -21 -23 -22 -19 -22
-19 -10 4 10 18 31 31 31 19z m275 -85 c-6 -15 -8 -14 -16 6 -5 14 -4 32 4 49
l12 28 3 -34 c2 -18 0 -40 -3 -49z m-159 21 c-15 -38 -121 -194 -124 -183 -2
6 1 17 7 23 6 6 11 19 11 30 0 10 4 16 9 13 5 -3 11 1 15 9 9 24 75 125 82
125 3 0 3 -8 0 -17z m-2358 -25 c15 -15 16 -31 1 -22 -6 3 -15 1 -19 -6 -5 -8
-9 -7 -13 5 -5 11 -3 14 5 9 8 -5 9 -2 5 9 -7 20 4 22 21 5z m2488 -5 c-2 -10
-10 -44 -17 -76 -7 -31 -14 -55 -17 -53 -7 8 21 146 30 146 5 0 7 -8 4 -17z
m94 -48 c0 -5 -5 -3 -10 5 -5 8 -10 20 -10 25 0 6 5 3 10 -5 5 -8 10 -19 10
-25z m40 15 c0 -5 -7 -10 -16 -10 -8 0 -12 5 -9 10 3 6 10 10 16 10 5 0 9 -4
9 -10z m57 -77 c-4 -17 -4 -17 -12 0 -4 9 -4 25 0 35 8 16 8 16 12 0 3 -10 3
-26 0 -35z m-3567 13 c0 -11 -19 -15 -25 -6 -3 5 1 10 9 10 9 0 16 -2 16 -4z
m-270 -15 c0 -5 -10 -11 -22 -14 -22 -6 -22 -6 -4 8 23 17 26 18 26 6z m-23
-53 c-3 -8 -6 -5 -6 6 -1 11 2 17 5 13 3 -3 4 -12 1 -19z m2909 1 c7 -12 -15
-31 -28 -23 -9 6 1 34 12 34 5 0 12 -5 16 -11z m1314 -15 c0 -8 -4 -12 -10 -9
-5 3 -10 10 -10 16 0 5 5 9 10 9 6 0 10 -7 10 -16z m-940 -59 c-26 -37 -34
-44 -46 -34 -24 20 -16 -7 12 -41 l27 -31 41 39 c25 23 48 37 59 35 9 -3 17
-7 17 -9 0 -3 -30 -39 -67 -80 -51 -55 -76 -76 -101 -80 -20 -4 -29 -10 -22
-14 8 -5 7 -9 -5 -14 -9 -3 -15 -12 -12 -19 3 -7 -5 -13 -19 -13 -13 -1 -24 2
-24 8 0 5 -9 6 -20 3 -14 -5 -20 -2 -20 9 0 20 -16 21 -27 3 -4 -8 -30 -31
-58 -52 -45 -34 -74 -65 -61 -65 3 0 27 13 52 30 26 16 50 28 52 25 6 -6 12
-2 -63 -53 -70 -48 -92 -54 -74 -19 9 17 5 15 -20 -10 -29 -27 -31 -34 -21
-53 9 -16 9 -25 0 -36 -7 -7 -16 -11 -21 -9 -14 9 -96 179 -92 191 2 7 13 9
24 7 14 -4 20 -1 17 8 -2 8 14 32 35 53 35 35 37 36 31 12 -8 -33 6 -34 55 -4
56 35 69 49 64 68 -3 12 3 20 19 25 12 4 26 13 30 19 4 7 9 4 13 -7 7 -16 9
-15 32 3 14 11 32 20 40 20 9 0 12 7 9 18 -3 11 9 33 34 61 33 38 46 46 87 51
26 3 50 5 51 4 2 -2 -10 -23 -28 -49z m657 13 c-3 -7 -5 -2 -5 12 0 14 2 19 5
13 2 -7 2 -19 0 -25z m-552 2 c3 -5 -1 -10 -10 -10 -9 0 -13 5 -10 10 3 6 8
10 10 10 2 0 7 -4 10 -10z m684 -114 c1 -67 -5 -55 -12 24 -4 40 -2 57 3 45 5
-11 9 -42 9 -69z m-1361 37 c6 -18 9 -33 7 -33 -9 0 -34 58 -28 64 8 8 8 8 21
-31z m1271 3 c10 -12 8 -13 -8 -9 -12 3 -21 9 -21 14 0 14 16 11 29 -5z
m-1331 -31 c-3 -3 -9 2 -12 12 -6 14 -5 15 5 6 7 -7 10 -15 7 -18z m130 13
c-3 -7 -15 -14 -29 -16 -24 -4 -24 -3 -4 12 24 19 38 20 33 4z m1067 -24 c19
-15 18 -16 -20 -9 -50 8 -70 25 -29 25 16 0 38 -8 49 -16z m109 -43 c10 -15
-33 -20 -45 -5 -9 11 -7 14 14 14 14 0 28 -4 31 -9z m-2207 -33 c-2 -7 8 -18
22 -25 l26 -12 -30 6 c-37 7 -39 9 -32 28 7 18 21 21 14 3z m47 -4 c9 -3 16
-14 16 -23 0 -10 -3 -12 -8 -5 -4 6 -16 16 -27 22 -21 12 -8 16 19 6z m556
-34 c0 -5 -5 -10 -11 -10 -5 0 -7 5 -4 10 3 6 8 10 11 10 2 0 4 -4 4 -10z
m810 -179 c0 -13 -29 -35 -37 -28 -7 8 15 37 28 37 5 0 9 -4 9 -9z m-249 -112
c6 -12 7 -24 2 -28 -18 -15 -164 -73 -170 -68 -12 12 6 34 41 51 20 9 36 21
36 27 0 6 5 7 10 4 6 -3 10 -2 10 3 0 8 36 30 52 31 4 1 12 -8 19 -20z m787
-94 c-3 -3 -9 2 -12 12 -6 14 -5 15 5 6 7 -7 10 -15 7 -18z m-305 -15 c-7 -28
-13 -25 -13 6 0 14 4 23 9 20 5 -3 7 -15 4 -26z m321 -2 c-38 -41 -97 -95
-108 -99 -5 -2 -13 6 -17 19 -5 13 -5 21 0 17 5 -3 20 -1 33 4 l23 10 -25 0
-24 1 21 22 c19 18 24 19 38 8 12 -10 18 -11 28 -1 9 10 8 11 -8 6 -11 -3 -6
1 12 10 17 8 34 19 38 25 3 5 9 10 12 10 4 0 -6 -14 -23 -32z m-1043 -5 c-12
-20 -14 -14 -5 12 4 9 9 14 11 11 3 -2 0 -13 -6 -23z m1009 23 c0 -2 -7 -7
-16 -10 -8 -3 -12 -2 -9 4 6 10 25 14 25 6z m-113 -122 c2 -5 -6 -10 -17 -11
-20 -2 -26 8 -13 21 9 8 26 3 30 -10z m-789 -69 c-3 -3 -9 2 -12 12 -6 14 -5
15 5 6 7 -7 10 -15 7 -18z"/>
<path d="M2205 3800 c-25 -11 1 -11 35 0 20 6 21 8 5 8 -11 0 -29 -3 -40 -8z"/>
<path d="M4307 3092 c-21 -23 -24 -51 -4 -30 13 13 30 48 23 48 -1 0 -10 -8
-19 -18z"/>
<path d="M926 2835 c4 -8 8 -15 10 -15 2 0 4 7 4 15 0 8 -4 15 -10 15 -5 0 -7
-7 -4 -15z"/>
<path d="M774 2695 c-3 -8 -4 -20 -2 -27 3 -7 7 -1 10 15 6 29 1 36 -8 12z"/>
<path d="M750 2461 c0 -5 7 -12 16 -15 14 -5 15 -4 4 9 -14 17 -20 19 -20 6z"/>
<path d="M4442 1740 c0 -19 2 -27 5 -17 2 9 2 25 0 35 -3 9 -5 1 -5 -18z"/>
<path d="M3580 1285 c-20 -24 -6 -28 15 -5 10 11 13 20 8 20 -6 0 -16 -7 -23
-15z"/>
<path d="M3200 1134 c0 -8 5 -12 10 -9 6 4 8 11 5 16 -9 14 -15 11 -15 -7z"/>
<path d="M3975 699 c-11 -16 -1 -19 13 -3 7 8 8 14 3 14 -5 0 -13 -5 -16 -11z"/>
<path d="M2055 4770 c-3 -5 3 -10 14 -10 11 0 23 5 26 10 3 6 -3 10 -14 10
-11 0 -23 -4 -26 -10z"/>
<path d="M1800 4700 c-12 -8 -10 -10 8 -10 13 0 20 4 17 10 -7 12 -6 12 -25 0z"/>
<path d="M2720 4385 c-24 -8 -46 -12 -48 -10 -3 2 -14 -1 -26 -7 -11 -6 -34
-15 -51 -19 l-30 -7 34 -1 c32 -1 201 45 201 55 0 8 -35 3 -80 -11z"/>
<path d="M1102 4214 c10 -10 20 -16 22 -13 3 3 -5 11 -17 18 -21 13 -21 12 -5
-5z"/>
<path d="M4160 4068 c0 -2 35 -37 77 -78 l77 -75 -64 70 c-55 61 -90 93 -90
83z"/>
<path d="M606 3855 c-3 -8 -1 -15 4 -15 6 0 10 7 10 15 0 8 -2 15 -4 15 -2 0
-6 -7 -10 -15z"/>
<path d="M4431 3770 c14 -31 19 -36 19 -24 0 6 -7 19 -16 30 -14 18 -14 18 -3
-6z"/>
<path d="M400 3686 c-22 -31 -37 -61 -34 -70 3 -8 1 -24 -6 -35 -6 -12 -9 -21
-6 -21 5 0 65 110 84 153 17 41 7 33 -38 -27z"/>
<path d="M4450 3705 c0 -5 5 -17 10 -25 5 -8 10 -10 10 -5 0 6 -5 17 -10 25
-5 8 -10 11 -10 5z"/>
<path d="M4576 3541 c-8 -13 11 -61 24 -61 5 0 10 5 10 10 0 6 -5 10 -11 10
-7 0 -9 10 -7 25 5 24 -5 34 -16 16z"/>
<path d="M751 3124 c0 -11 3 -14 6 -6 3 7 2 16 -1 19 -3 4 -6 -2 -5 -13z"/>
<path d="M741 3074 c0 -11 3 -14 6 -6 3 7 2 16 -1 19 -3 4 -6 -2 -5 -13z"/>
<path d="M702 3030 c0 -14 2 -19 5 -12 2 6 2 18 0 25 -3 6 -5 1 -5 -13z"/>
<path d="M726 3034 c-8 -22 -7 -44 2 -44 4 0 9 14 10 30 3 33 -2 39 -12 14z"/>
<path d="M182 2885 c0 -16 2 -22 5 -12 2 9 2 23 0 30 -3 6 -5 -1 -5 -18z"/>
<path d="M166 2773 c-6 -14 -5 -15 5 -6 7 7 10 15 7 18 -3 3 -9 -2 -12 -12z"/>
<path d="M568 2783 c7 -3 16 -2 19 1 4 3 -2 6 -13 5 -11 0 -14 -3 -6 -6z"/>
<path d="M4800 2560 c0 -5 4 -10 9 -10 6 0 13 5 16 10 3 6 -1 10 -9 10 -9 0
-16 -4 -16 -10z"/>
<path d="M136 2451 c-4 -5 3 -7 14 -4 23 6 26 13 6 13 -8 0 -17 -4 -20 -9z"/>
<path d="M4770 2237 c0 -8 -3 -22 -6 -31 -4 -11 -1 -16 10 -16 13 0 15 6 10
28 -8 33 -14 41 -14 19z"/>
<path d="M645 2139 c4 -6 9 -33 11 -61 5 -73 12 -69 12 7 0 50 -4 65 -15 65
-8 0 -11 -5 -8 -11z"/>
<path d="M120 2117 c0 -33 20 -66 42 -69 23 -4 23 -4 -3 -17 -24 -12 -26 -16
-18 -50 5 -20 16 -83 24 -141 9 -57 17 -106 19 -107 4 -5 66 21 66 28 0 4 -7
23 -16 44 -8 21 -13 44 -10 51 5 12 -31 254 -38 261 -1 2 -17 6 -34 9 -25 5
-32 3 -32 -9z"/>
<path d="M1030 1800 c-6 -11 -7 -20 -2 -20 6 0 12 9 15 20 3 11 3 20 1 20 -2
0 -8 -9 -14 -20z"/>
<path d="M1094 1794 c3 -9 6 -18 6 -20 0 -2 7 -4 15 -4 13 0 13 3 3 20 -15 24
-33 27 -24 4z"/>
<path d="M823 1517 c-17 -7 -23 -19 -23 -43 0 -18 4 -35 9 -38 9 -6 48 81 40
88 -2 2 -14 -1 -26 -7z"/>
<path d="M776 1475 c-3 -8 -1 -15 4 -15 6 0 10 7 10 15 0 8 -2 15 -4 15 -2 0
-6 -7 -10 -15z"/>
<path d="M881 1474 c0 -11 3 -14 6 -6 3 7 2 16 -1 19 -3 4 -6 -2 -5 -13z"/>
<path d="M1164 1439 c-3 -6 0 -15 7 -20 7 -4 10 -11 6 -16 -5 -4 -12 -1 -17 7
-9 15 -8 15 -170 -129 -139 -123 -178 -169 -197 -230 -15 -46 -18 -51 -24 -30
-6 23 -7 22 -23 -13 -18 -43 -21 -68 -5 -68 5 0 7 -6 3 -12 -5 -8 0 -7 11 2
11 9 16 10 11 3 -4 -7 -3 -13 1 -13 5 0 18 -7 29 -16 10 -8 13 -12 5 -8 -9 5
-12 3 -7 -5 11 -18 28 -4 142 124 58 66 123 138 143 160 93 101 172 205 165
217 -26 47 -65 70 -80 47z"/>
<path d="M407 1427 c-3 -7 1 -24 9 -38 10 -17 13 -19 14 -7 0 9 -4 19 -10 23
-5 3 -7 12 -3 20 3 8 3 15 0 15 -3 0 -7 -6 -10 -13z"/>
<path d="M437 1427 c-3 -8 1 -14 8 -14 7 0 11 6 8 14 -3 7 -6 13 -8 13 -2 0
-5 -6 -8 -13z"/>
<path d="M985 1367 c-113 -69 -120 -75 -126 -110 -3 -21 -3 -40 1 -42 3 -2 42
28 86 68 118 107 170 157 164 157 -3 0 -59 -33 -125 -73z"/>
<path d="M480 1337 c0 -7 14 -32 31 -55 17 -23 28 -46 24 -51 -5 -9 108 -173
124 -179 4 -1 13 8 20 20 7 13 24 32 39 43 23 17 22 13 -12 -34 l-40 -54 23
-18 c31 -25 39 -24 47 9 4 15 12 34 18 42 6 8 -2 4 -17 -9 -37 -34 -34 -21 8
29 19 23 43 61 54 85 10 23 24 46 30 49 6 4 11 21 11 37 0 29 0 29 -27 14 -16
-8 -56 -33 -90 -55 -35 -21 -63 -37 -63 -35 0 2 9 20 21 39 32 55 19 59 -39
15 -29 -23 -54 -39 -56 -37 -1 1 -24 38 -50 81 -48 78 -56 87 -56 64z"/>
<path d="M397 1313 c-8 -7 14 -53 25 -53 4 0 8 -5 8 -11 0 -5 23 -46 51 -90
l52 -80 23 22 c20 19 22 25 11 38 -8 9 -42 51 -76 93 -60 73 -83 93 -94 81z"/>
<path d="M1440 1282 c0 -5 -10 -13 -21 -18 -20 -9 -19 -12 29 -52 50 -42 51
-42 58 -20 13 36 11 66 -2 61 -17 -6 -56 16 -49 28 4 5 1 9 -4 9 -6 0 -11 -4
-11 -8z"/>
<path d="M1299 1207 c-30 -29 -140 -133 -243 -232 -104 -99 -198 -184 -209
-190 -21 -11 -25 -27 -8 -33 8 -3 421 386 500 472 44 47 17 36 -40 -17z"/>
<path d="M1212 1077 c-86 -84 -194 -188 -239 -231 -46 -44 -83 -85 -83 -92 0
-6 7 -17 15 -24 9 -7 13 -20 10 -28 -6 -17 31 -62 52 -62 8 0 38 -19 68 -41
42 -32 58 -39 68 -30 8 6 16 9 18 6 3 -2 10 5 17 16 10 16 10 20 -2 25 -7 3
-12 13 -9 22 6 23 87 74 106 66 14 -5 127 61 135 79 2 4 8 7 14 7 6 0 26 11
44 25 18 14 37 25 43 25 6 0 11 6 11 13 0 6 11 17 23 23 22 10 23 9 18 -22 -4
-24 -18 -41 -48 -63 -24 -17 -45 -31 -47 -31 -8 0 -199 -119 -217 -136 -14
-13 -16 -20 -8 -31 6 -7 15 -13 20 -13 14 0 99 -61 99 -71 0 -15 -7 -11 -77
36 -60 40 -69 43 -88 31 -11 -7 -30 -19 -42 -27 -23 -14 -31 -39 -13 -39 6 0
10 5 10 10 0 22 18 8 26 -21 5 -18 20 -39 33 -47 l24 -16 -7 67 -8 67 26 -11
c30 -14 32 -21 10 -55 -9 -13 -15 -26 -13 -28 17 -16 112 -55 120 -50 13 8 69
-15 69 -29 0 -5 -7 -15 -16 -22 -15 -10 -6 -16 57 -43 51 -21 74 -36 74 -48 0
-20 85 -61 85 -41 1 8 5 6 13 -4 19 -24 87 -46 137 -43 25 1 88 -7 140 -18 52
-11 120 -20 150 -19 30 0 83 -4 118 -10 35 -5 102 -7 150 -3 l87 7 63 231 c81
298 94 343 99 330 3 -9 -50 -406 -73 -541 -5 -31 -7 -33 -47 -33 -46 -1 -41
-7 29 -36 32 -14 36 -14 31 0 -3 8 0 19 7 25 7 6 12 24 11 41 -1 17 3 34 9 39
6 5 52 12 101 16 50 3 94 11 100 16 5 5 18 9 29 9 10 0 16 -3 13 -7 -4 -3 -2
-12 4 -20 9 -10 6 -13 -12 -15 -13 0 -33 -2 -44 -3 -11 -1 -56 -3 -100 -4
l-80 -1 -2 -48 c-1 -36 1 -42 7 -24 5 12 16 22 24 22 11 0 16 -15 18 -63 l3
-62 21 80 20 80 79 -2 c80 -3 99 -8 77 -22 -9 -5 -11 -17 -6 -34 7 -32 14 -33
36 -8 10 12 36 21 74 25 33 4 69 10 82 13 16 4 22 1 22 -11 0 -9 5 -16 11 -16
8 0 9 11 5 33 -15 78 -159 633 -167 643 -7 8 -33 7 -96 -3 -47 -7 -91 -12 -97
-10 -12 4 107 27 140 27 10 0 26 5 34 11 11 8 -1 9 -44 5 -38 -4 -63 -2 -72 5
-12 10 -13 9 -8 -5 5 -12 2 -15 -9 -10 -9 3 -18 12 -21 20 -7 17 -57 19 -74 2
-10 -10 -14 -10 -21 0 -6 10 -16 11 -42 4 l-34 -10 30 -1 c60 -2 96 -22 63
-33 -7 -2 -62 -1 -123 2 -60 4 -113 3 -116 -2 -7 -11 -209 12 -209 24 0 15
-28 39 -32 28 -2 -6 -35 3 -76 20 -41 18 -81 29 -92 25 -10 -3 -21 -1 -25 4
-4 7 1 8 12 5 14 -5 15 -4 4 4 -8 6 -20 8 -27 5 -7 -3 -27 4 -44 14 -31 18
-32 18 -46 -1 -13 -18 -14 -17 -14 17 0 20 -4 37 -10 37 -5 0 -10 9 -10 20 0
20 -1 20 -27 3 -15 -10 -24 -12 -20 -5 5 7 3 12 -3 12 -7 0 -10 7 -7 15 5 12
2 12 -18 3 -20 -9 -31 -5 -84 32 -53 37 -63 41 -77 29 -15 -12 -17 -12 -13 0
6 17 -86 106 -124 120 -27 10 -34 5 -185 -142z m188 92 c0 -6 -4 -7 -10 -4 -5
3 -10 11 -10 16 0 6 5 7 10 4 6 -3 10 -11 10 -16z m-30 -197 c0 -5 -9 -18 -20
-29 -19 -21 -19 -21 12 -32 25 -9 29 -15 24 -33 -3 -13 -6 -26 -6 -30 0 -15
-29 -8 -39 10 -8 13 -9 9 -4 -17 6 -31 4 -34 -13 -26 -45 19 -62 17 -75 -7 -7
-12 -13 -26 -14 -30 0 -3 -3 -9 -7 -13 -3 -4 -5 1 -4 11 2 14 135 204 144 204
1 0 2 -4 2 -8z m126 -49 c-8 -25 -57 -47 -70 -32 -8 9 -7 10 1 5 16 -9 62 24
63 43 0 8 3 12 6 8 3 -3 3 -14 0 -24z m312 -24 c54 -22 68 -38 17 -19 -22 8
-30 8 -37 -2 -6 -10 -8 -9 -8 4 0 10 -12 25 -27 33 -33 19 -16 15 55 -16z
m-381 -65 c-3 -3 -12 -4 -19 -1 -8 3 -5 6 6 6 11 1 17 -2 13 -5z m613 -5 c98
-22 120 -30 120 -44 0 -19 -4 -18 -84 0 -85 20 -96 25 -96 41 0 16 2 17 60 3z
m-294 -51 c-8 -21 -27 -40 -51 -52 -39 -20 -75 -68 -75 -101 0 -13 -13 -26
-35 -37 -36 -18 -50 -12 -38 18 5 13 3 16 -9 12 -14 -6 -14 1 1 59 14 53 22
68 45 80 26 14 28 14 22 -1 -18 -45 -18 -52 -1 -31 9 11 19 25 23 32 7 11 95
50 119 52 9 1 9 -7 -1 -31z m-463 -2 c4 -10 0 -12 -14 -9 -10 3 -16 9 -13 14
8 13 21 11 27 -5z m-73 -17 c0 -6 -6 -9 -12 -6 -7 2 -24 -12 -37 -31 -17 -26
-26 -31 -35 -22 -8 8 -3 19 22 41 33 29 62 38 62 18z m1500 -69 c0 -5 -10 -15
-22 -21 -23 -12 -23 -12 -4 10 21 23 26 26 26 11z m-87 -133 c-6 -12 -26 -76
-43 -142 -18 -66 -35 -128 -38 -137 -3 -12 1 -18 13 -18 25 0 12 -23 -18 -31
-15 -4 -27 -6 -27 -4 0 2 -3 10 -6 19 -4 10 -1 16 9 16 11 0 17 16 23 58 8 65
58 238 76 259 16 20 23 7 11 -20z m-1204 -143 c14 -12 -19 -1 -35 12 -18 14
-18 14 6 3 14 -6 27 -13 29 -15z m182 -66 c-37 -29 -50 -24 -31 12 7 12 17 16
31 13 l22 -6 -22 -19z m76 -11 c127 -36 193 -60 193 -68 0 -6 -6 -8 -12 -6 -7
3 -48 18 -92 32 -65 23 -80 25 -88 14 -8 -11 -9 -10 -5 3 7 21 -21 33 -39 17
-18 -15 -19 3 -3 34 l12 21 8 -21 c4 -12 16 -24 26 -26z m572 -106 c4 -5 29
-11 56 -14 l50 -3 -55 -2 c-30 -1 -93 5 -140 13 -76 14 -85 14 -93 -1 -8 -14
-11 -13 -24 5 -8 12 -25 21 -38 21 -16 0 -23 5 -19 13 4 11 28 10 131 -4 69
-10 129 -22 132 -28z m321 -51 c0 -5 -2 -10 -4 -10 -3 0 -8 5 -11 10 -3 6 -1
10 4 10 6 0 11 -4 11 -10z"/>
<path d="M1309 889 c-8 -16 -8 -24 2 -33 9 -8 10 -8 5 1 -4 7 -2 22 4 33 6 11
8 20 6 20 -3 0 -10 -9 -17 -21z"/>
<path d="M1510 1156 c0 -2 8 -10 18 -17 15 -13 16 -12 3 4 -13 16 -21 21 -21
13z"/>
<path d="M794 810 c0 -11 4 -20 9 -20 4 0 12 0 17 0 16 0 11 27 -6 34 -22 8
-21 8 -20 -14z"/>
<path d="M1176 659 c-27 -15 -35 -24 -28 -31 8 -8 20 -1 42 21 17 17 30 31 28
31 -2 -1 -20 -10 -42 -21z"/>
<path d="M4049 644 c-36 -38 -15 -32 36 11 20 16 25 25 14 25 -8 0 -31 -16
-50 -36z"/>
<path d="M3820 571 c0 -6 5 -13 10 -16 6 -3 10 1 10 9 0 9 -4 16 -10 16 -5 0
-10 -4 -10 -9z"/>
<path d="M3620 542 c0 -6 4 -12 10 -12 5 0 7 -6 5 -12 -3 -7 -1 -20 5 -28 7
-12 12 -12 22 -2 10 10 7 18 -15 39 -15 15 -27 22 -27 15z"/>
<path d="M3246 375 c-3 -9 -2 -14 3 -11 5 3 12 -5 15 -19 4 -14 10 -25 15 -25
5 0 2 15 -6 33 -21 41 -20 40 -27 22z"/>
<path d="M3387 228 c-15 -5 -24 -14 -21 -19 4 -6 11 -6 19 1 8 7 18 9 24 6 5
-3 11 1 15 9 6 17 2 17 -37 3z"/>
<path d="M3240 170 c-18 -12 -2 -12 25 0 13 6 15 9 5 9 -8 0 -22 -4 -30 -9z"/>
</g>
</svg>
